PathFileType	4	(X/Y/Z)	Run_400 01
DataRate	CameraRate	NumFrames	NumMarkers	Units	OrigDataRate	OrigDataStartFrame	OrigNumFrames
120	120	4	42	mm	120	522	128
Frame#	Time	LASI			RASI			LPSI			RPSI			RTH1			RTH2			RTH3			LTH1			LTH2			LTH3			RTB1			RTB2			RTB3			LTB1			LTB2			LTB3			RCAL			RTOE			RMT5			LCAL			LTOE			LMT5			LACR			RACR			CLAV			C7			RUA1			RUA2			RUA3			RLEL			RMEL			LUA1			LUA2			LUA3			LLEL			LMEL			RFAsuperior			RFAradius			RFAulna			LFAsuperior			LFAradius			LFAulna		
		X1	Y1	Z1	X2	Y2	Z2	X3	Y3	Z3	X4	Y4	Z4	X5	Y5	Z5	X6	Y6	Z6	X7	Y7	Z7	X8	Y8	Z8	X9	Y9	Z9	X10	Y10	Z10	X11	Y11	Z11	X12	Y12	Z12	X13	Y13	Z13	X14	Y14	Z14	X15	Y15	Z15	X16	Y16	Z16	X17	Y17	Z17	X18	Y18	Z18	X19	Y19	Z19	X20	Y20	Z20	X21	Y21	Z21	X22	Y22	Z22	X23	Y23	Z23	X24	Y24	Z24	X25	Y25	Z25	X26	Y26	Z26	X27	Y27	Z27	X28	Y28	Z28	X29	Y29	Z29	X30	Y30	Z30	X31	Y31	Z31	X32	Y32	Z32	X33	Y33	Z33	X34	Y34	Z34	X35	Y35	Z35	X36	Y36	Z36	X37	Y37	Z37	X38	Y38	Z38	X39	Y39	Z39	X40	Y40	Z40	X41	Y41	Z41	X42	Y42	Z42	

522	  4.350000	718.994581	973.175665	-501.884761	736.698375	959.497931	-256.896520	550.882525	982.271832	-405.371470	560.466152	984.000154	-319.257578	677.244861	771.355503	-218.209671	712.406181	646.906008	-236.888795	617.068391	540.678947	-225.251361	706.420818	833.430299	-549.207684	803.775109	750.786211	-533.179172	794.746063	599.421685	-527.456402	480.399143	442.269685	-281.571603	427.276878	503.964195	-233.922556	315.586991	517.932023	-299.522358	865.048716	374.446507	-437.986115	803.045988	274.825705	-481.790454	800.749706	197.642756	-402.424548	245.913980	657.193385	-328.362221	122.503871	478.944749	-288.949171	123.694960	537.456790	-212.287781	658.758973	102.700374	-397.689436	875.854695	 75.489008	-392.286385	846.170648	 60.721926	-480.346892	684.625856	1418.950663	-570.580422	737.668715	1417.413606	-199.426985	802.270395	1373.084425	-376.419238	673.268459	1465.884941	-384.760266	714.776885	1311.420377	-132.748645	727.203345	1240.272185	-133.855138	639.757886	1240.031218	-73.855989	666.864630	1153.381865	-48.476680	593.595081	1136.833907	-99.997585	634.055910	1376.084489	-628.862323	558.511319	1327.173896	-617.854651	588.630857	1312.459607	-686.028761	528.747893	1238.185487	-745.971197	495.623338	1177.095837	-684.946351	735.276334	1132.840616	-94.444825	832.798186	1107.410736	-229.923965	811.727492	1046.758717	-206.171695	600.794989	1238.486414	-747.474993	756.564685	1217.152991	-663.791105	749.676920	1159.665469	-700.502867	
523	  4.358333	716.757617	969.524449	-502.993229	734.715592	953.865428	-256.255358	548.677405	980.729438	-402.417791	558.219992	980.717456	-316.914614	681.628503	766.886226	-217.931617	722.718279	644.737706	-235.439885	634.114983	535.052155	-222.036962	700.909354	832.384245	-550.026830	797.237119	746.499053	-534.372067	786.509797	596.049452	-529.035667	501.956487	438.984634	-279.368695	450.019961	501.593005	-231.653446	338.550331	518.010105	-296.405017	847.767897	370.707637	-438.843668	781.421519	273.433770	-482.454121	775.065366	196.520313	-403.150340	272.135591	659.561722	-326.476181	146.149198	483.109973	-286.426053	149.326960	541.373287	-209.522829	627.083956	103.985002	-397.576411	843.533282	 74.418531	-392.740304	813.388558	 60.476778	-480.428434	685.637099	1413.356108	-571.987027	736.111050	1413.161490	-199.058686	804.482038	1367.050119	-374.586482	673.939001	1462.137494	-386.233039	709.463854	1307.722320	-132.858536	718.054468	1236.075719	-134.780719	630.709653	1238.786710	-75.966271	655.406086	1151.389537	-48.187956	584.172093	1135.870030	-101.773351	636.268524	1365.986589	-630.601036	562.583363	1313.366290	-621.179366	595.506400	1300.566170	-688.828337	541.074042	1224.062851	-749.470273	509.526584	1161.218573	-689.880546	724.156963	1125.893674	-91.038151	825.546626	1089.617804	-221.418430	800.586518	1030.768379	-195.421026	613.344244	1227.115757	-748.185656	767.210934	1211.252941	-661.895662	764.306631	1154.154134	-699.509604	
524	  4.366667	714.727415	967.687733	-503.977711	732.375786	950.783513	-254.478364	547.062218	981.425719	-400.244661	556.266262	980.347278	-314.629673	685.743350	763.772381	-217.356356	733.811381	644.095164	-234.093115	652.586158	531.374008	-219.148278	696.010146	831.697462	-550.586381	789.445338	741.705553	-535.133199	773.665576	591.433256	-529.483112	525.269663	435.898897	-277.630087	474.257289	498.618860	-229.300102	362.768751	516.305585	-293.417514	827.834317	365.565704	-440.051115	757.389492	270.268411	-482.791284	747.510521	194.080376	-403.843490	297.631168	659.880916	-323.012217	170.886048	483.248179	-285.485184	175.179660	540.009384	-207.396852	594.644558	104.940147	-397.750227	810.632187	 72.947480	-393.359092	780.151357	 59.730949	-480.777606	686.531962	1408.544695	-573.188625	734.255427	1410.088756	-198.611063	806.255244	1362.407073	-372.200881	675.014340	1459.937718	-387.543238	704.262665	1305.417721	-132.895509	709.288717	1233.541221	-135.819013	621.522048	1238.731596	-78.787405	643.886416	1150.864134	-48.412527	574.679954	1136.083256	-104.087537	638.421438	1357.081190	-631.828724	567.448683	1299.665507	-622.929482	602.792968	1289.682018	-690.579589	554.874205	1210.737565	-752.001580	524.740756	1146.266804	-694.157871	712.671695	1120.634406	-88.433723	817.035558	1073.093555	-212.346726	788.146133	1016.554531	-184.397116	627.126275	1216.429349	-747.669723	778.656669	1205.546795	-659.072290	779.529081	1149.345592	-697.714134	
525	  4.375000	712.936469	967.319228	-504.852458	729.838831	950.322751	-252.314703	545.562698	983.183788	-399.236682	554.255121	981.666133	-313.013523	689.669841	762.136974	-216.508614	745.773693	645.197525	-232.959006	672.199174	529.821036	-216.726089	691.576523	831.097655	-550.858231	780.364628	736.478119	-535.569245	757.165371	586.156492	-529.120112	550.009005	433.264430	-276.097508	499.712298	495.586200	-226.802842	387.802083	513.131011	-290.729805	805.362542	358.746009	-441.087183	730.804997	265.612448	-482.669888	717.836654	190.686696	-404.026792	321.460027	658.336208	-318.361046	196.307258	479.383210	-285.857389	200.794769	533.610289	-205.910950	561.352216	105.585788	-398.115817	776.969066	 71.746098	-393.915488	746.341910	 59.021721	-481.311874	687.736729	1404.569467	-574.085475	731.989251	1408.357306	-198.181039	807.208230	1359.693080	-369.768381	676.109674	1458.847161	-388.613333	698.933069	1304.613438	-132.757538	701.151574	1232.682662	-136.541727	612.290586	1239.988812	-82.067896	632.381054	1151.992148	-49.024686	565.081912	1137.763681	-106.742773	641.108799	1349.501252	-632.514740	573.676238	1286.760060	-622.956169	610.509512	1280.104218	-691.185452	569.776460	1198.606439	-753.381743	540.919327	1132.703465	-697.433435	701.022696	1117.331491	-86.377952	807.433615	1058.704022	-202.904165	774.469037	1004.884981	-173.733755	641.803306	1206.693178	-746.129994	790.899105	1200.687231	-655.256085	795.109188	1145.560350	-695.057038	
